<svg xmlns="http://www.w3.org/2000/svg" viewBox="0 0 160 100" width="160" height="100" fill="none" stroke="#222" stroke-width="2" stroke-linecap="round" stroke-linejoin="round"><g transform="translate(40 75)"><circle r="16" stroke-width="4"/><g><path d="M-16 0h32M0-16v32M-11-11l22 22M-11 11l22-22"/><animateTransform attributeName="transform" type="rotate" from="0" to="360" dur=".7s" repeatCount="indefinite"/></g></g><g transform="translate(115 75)"><circle r="16" stroke-width="4"/><path d="M-16 0h32M0-16v32M-11-11l22 22M-11 11l22-22"/></g><path stroke-width="3.5" d="M40 75L65 55L78 75L40 75M65 55L108 53L88 75L78 75M88 75H115M108 53L115 75M107 52l12-4M59 52h16"/><circle cx="78" cy="75" r="4" fill="#222"/><path d="M78 75l10-7M78 75l-9 8" stroke-width="3"/><g stroke="#e87828" stroke-width="4"><path d="M61 55l17 20 10-7"/><path d="M72 56l6 19-9 8"/></g><path d="M43 43l-14-7 5 14z" fill="#fff7dc"/><ellipse cx="64" cy="43" rx="24" ry="15" fill="#fff7dc"/><ellipse cx="60" cy="45" rx="11" ry="7" fill="#cfe7f7"/><path d="M76 38c9-7 5-17 15-18" stroke-width="12"/><path d="M76 38c9-7 5-17 15-18" stroke="#fff7dc" stroke-width="8"/><path d="M96 19l43-4-41 11z" fill="#f59a2e"/><path d="M97 25q20 13 40-9q-20 8-40 9z" fill="#ffd26a"/><circle cx="91" cy="20" r="8" fill="#fff7dc"/><circle cx="94" cy="18" r="1.5" fill="#222"/></svg>