<svg xmlns="http://www.w3.org/2000/svg" viewBox="0 0 1200 800" fill="none">
  <defs>
    <linearGradient id="bg" x1="120" y1="96" x2="1080" y2="704" gradientUnits="userSpaceOnUse">
      <stop stop-color="#0b0b0e"/>
      <stop offset="1" stop-color="#15151a"/>
    </linearGradient>
  </defs>
  <rect width="1200" height="800" rx="36" fill="url(#bg)"/>
  <rect x="112" y="92" width="976" height="616" rx="32" fill="#111117" stroke="#2a2a33"/>
  <rect x="208" y="148" width="784" height="504" rx="26" fill="#0f0f14" stroke="#f5f5f5" stroke-opacity=".12"/>
  <rect x="256" y="196" width="216" height="56" rx="18" fill="#f5f5f5" fill-opacity=".08"/>
  <rect x="256" y="272" width="288" height="18" rx="9" fill="#f5f5f5" fill-opacity=".16"/>
  <rect x="256" y="306" width="244" height="18" rx="9" fill="#f5f5f5" fill-opacity=".12"/>
  <rect x="256" y="340" width="180" height="18" rx="9" fill="#f5f5f5" fill-opacity=".10"/>
  <rect x="256" y="412" width="148" height="148" rx="22" fill="#f5f5f5" fill-opacity=".08"/>
  <rect x="430" y="412" width="148" height="148" rx="22" fill="#f5f5f5" fill-opacity=".05"/>
  <rect x="604" y="196" width="290" height="364" rx="28" fill="#f5f5f5" fill-opacity=".05"/>
  <circle cx="748" cy="382" r="104" fill="#f5f5f5" fill-opacity=".10"/>
  <circle cx="748" cy="382" r="58" fill="#f5f5f5" fill-opacity=".20"/>
  <path d="M680 286h136M660 338h176M664 390h168M678 442h144" stroke="#f5f5f5" stroke-opacity=".12" stroke-width="6" stroke-linecap="round"/>
  <path d="M778 272c60 44 90 94 90 150 0 44-16 78-48 110" stroke="#f5f5f5" stroke-opacity=".20" stroke-width="6" stroke-linecap="round"/>
  <path d="M344 466c34-34 98-38 130 0 30 34 28 82-5 116-31 31-84 31-115 0-34-34-41-78-10-116Z" fill="#f5f5f5" fill-opacity=".12"/>
  <path d="M378 462c18 12 26 28 28 48" stroke="#f5f5f5" stroke-opacity=".28" stroke-width="4" stroke-linecap="round"/>
</svg>
